PathFileType	4	(X/Y/Z)	c:/Users/goper/Files/vsCode/490R/osim_files/C11/C11_Slow_01.trc
DataRate	CameraRate	NumFrames	NumMarkers	Units                	OrigDataRate	OrigDataStartFrame	OrigNumFrames
120.00	120.00	9	36	mm	120.0	652	1737
                Frame#	Time	LPSIS			LASIS			LTH1			LTH2			LTH3			LTH4			LLFE			LMFE			LSH1			LSH2			LSH3			LSH4			LLMAL			LMMAL			LCAL			LMTP5			LTOE			LMTP1			RPSIS			RASIS			RTH1			RTH2			RTH3			RTH4			RLFE			RMFE			RSH1			RSH2			RSH3			RSH4			RLMAL			RMMAL			RCAL			RMTP1			RTOE			RMTP5		
		X1	Y1	Z1	X2	Y2	Z2	X3	Y3	Z3	X4	Y4	Z4	X5	Y5	Z5	X6	Y6	Z6	X7	Y7	Z7	X8	Y8	Z8	X9	Y9	Z9	X10	Y10	Z10	X11	Y11	Z11	X12	Y12	Z12	X13	Y13	Z13	X14	Y14	Z14	X15	Y15	Z15	X16	Y16	Z16	X17	Y17	Z17	X18	Y18	Z18	X19	Y19	Z19	X20	Y20	Z20	X21	Y21	Z21	X22	Y22	Z22	X23	Y23	Z23	X24	Y24	Z24	X25	Y25	Z25	X26	Y26	Z26	X27	Y27	Z27	X28	Y28	Z28	X29	Y29	Z29	X30	Y30	Z30	X31	Y31	Z31	X32	Y32	Z32	X33	Y33	Z33	X34	Y34	Z34	X35	Y35	Z35	X36	Y36	Z36

652	5.42500	2260.36719	1001.04987	403.03308	0.00000	0.00000	0.00000	0.00000	0.00000	0.00000	2126.81641	570.83545	500.84991	2089.95190	622.47693	516.53412	0.00000	0.00000	0.00000	0.00000	0.00000	0.00000	2095.84912	506.12573	499.15125	2151.53003	404.40970	503.49271	2154.05078	359.15799	500.76877	2091.27222	397.04584	507.43314	2102.14478	350.76605	502.75980	2158.69678	99.52267	430.55768	2127.44116	118.44770	338.70984	2215.73853	66.16464	373.00928	2047.63513	44.52782	461.53659	1974.15234	61.69466	393.53912	2013.22131	49.96049	346.24176	2261.02051	1010.05060	319.26263	2103.57031	992.17072	234.78477	2065.23633	635.89465	188.12573	2046.05664	596.33185	192.99872	0.00000	0.00000	0.00000	1994.93884	612.81641	195.35266	2005.51599	526.93439	206.30644	2015.35913	512.52350	320.31693	2109.58960	489.34698	203.97127	2138.78711	452.95569	202.89255	0.00000	0.00000	0.00000	0.00000	0.00000	0.00000	2314.92847	253.21199	238.10159	2277.98218	232.53398	327.11703	2376.13696	267.21255	301.57474	2237.67432	103.69756	289.95523	2229.06372	114.85556	240.02299	2284.52954	130.30951	189.37665
653	5.43333	2253.54858	1001.68500	402.76025	0.00000	0.00000	0.00000	0.00000	0.00000	0.00000	2124.48901	571.11627	501.17273	2085.68628	622.85370	517.06042	0.00000	0.00000	0.00000	0.00000	0.00000	0.00000	2094.21118	505.97513	499.76157	2150.42456	404.39319	504.08716	2153.06909	359.13474	501.31451	2090.14380	396.82907	507.95084	2101.19653	350.58524	503.33197	2158.64380	99.47903	430.55600	2127.41016	118.45895	338.72070	2215.71704	66.20639	372.99527	2047.64563	44.50698	461.58319	1974.30701	61.81245	393.54214	2013.23962	49.96936	346.25613	2253.90674	1010.84882	319.13824	2095.21436	993.66711	235.74615	2052.72388	638.92346	187.25281	2032.97937	599.65552	192.14275	0.00000	0.00000	0.00000	1982.00928	616.72064	195.14018	1991.83716	530.60651	206.10269	2001.89600	515.94971	319.80273	2095.05713	489.06003	203.28860	2122.84277	452.46088	202.44775	0.00000	0.00000	0.00000	0.00000	0.00000	0.00000	2292.36914	246.43637	237.44118	2254.63940	227.24030	326.11975	2354.60815	258.47040	300.34479	2209.71924	100.33245	290.61194	2201.63184	111.53115	240.56474	2257.44360	124.76591	189.92982
654	5.44167	2246.74658	1002.14319	402.47116	0.00000	0.00000	0.00000	0.00000	0.00000	0.00000	2122.16602	571.42194	501.49371	2081.16016	623.22931	517.68579	0.00000	0.00000	0.00000	0.00000	0.00000	0.00000	2092.61548	505.81036	500.34573	2149.28125	404.33853	504.61819	2152.15381	359.12601	501.76376	2089.06763	396.59335	508.46207	2100.32568	350.42877	503.77429	2158.60059	99.46288	430.55148	2127.16675	118.32038	338.72348	2215.70361	66.27096	372.98322	2047.65637	44.49780	461.62430	1974.34827	61.79475	393.55963	2012.72571	49.65007	346.55258	2246.84326	1011.54456	318.94354	2087.54004	994.79938	236.36261	2040.50891	641.76422	186.47609	2020.18762	602.79059	191.41885	0.00000	0.00000	0.00000	1969.53308	620.54150	195.04189	1978.52698	534.07898	205.82520	1988.88794	519.23010	319.28668	2080.58252	488.94003	202.59508	2107.01074	451.53375	201.96211	0.00000	0.00000	0.00000	0.00000	0.00000	0.00000	2269.37793	239.18506	236.71115	2232.35840	222.56703	326.40051	2332.60938	249.04617	298.98383	2181.37354	97.01185	291.50662	2173.79614	108.23763	241.65483	2229.27124	118.55808	190.23796
655	5.45000	2239.96338	1002.46320	402.12720	0.00000	0.00000	0.00000	0.00000	0.00000	0.00000	2119.79980	571.74011	501.82095	2077.30762	623.39587	518.27649	0.00000	0.00000	0.00000	0.00000	0.00000	0.00000	2091.07617	505.77841	500.83575	2148.22803	404.29349	504.98367	2151.27344	359.19037	502.07489	2088.05664	396.39481	508.93964	2099.55737	350.25314	504.14444	2158.62036	99.51431	430.57001	0.00000	0.00000	0.00000	2215.68140	66.30582	372.96570	2047.70508	44.51823	461.69708	1974.36157	61.75797	393.60220	2012.76746	49.67658	346.55042	2239.75024	1012.01050	318.74179	2081.22046	995.62360	236.71889	2028.62170	644.36816	185.81041	2007.81531	605.73041	190.77106	0.00000	0.00000	0.00000	1957.42566	624.04645	194.98854	1965.58972	537.26331	205.53853	1976.01599	522.23169	318.88635	2066.28247	488.39972	201.73718	2091.27637	450.19153	201.49345	0.00000	0.00000	0.00000	0.00000	0.00000	0.00000	2245.95703	231.54140	235.91687	2208.97607	217.06166	325.96576	2310.12573	239.06999	297.52451	2152.53857	93.68843	292.61304	2144.86621	104.35615	242.26649	2200.22363	112.11575	190.16301
656	5.45833	2233.16602	1002.68628	401.75571	0.00000	0.00000	0.00000	0.00000	0.00000	0.00000	2117.35962	572.07080	502.16211	2074.60425	623.32074	518.68951	0.00000	0.00000	0.00000	0.00000	0.00000	0.00000	2089.49634	505.73434	501.33954	2147.26953	404.27197	505.22607	2150.48828	359.30081	502.28156	2087.12964	396.19000	509.35608	2098.78760	350.02411	504.50610	2158.59204	99.51164	430.56747	0.00000	0.00000	0.00000	2215.66577	66.34737	372.93652	2047.72693	44.51019	461.75146	1974.39648	61.71880	393.62244	2012.73840	49.67608	346.58054	2232.71118	1012.42224	318.48901	2073.76562	996.47925	237.47450	2017.18115	646.85773	185.21678	0.00000	0.00000	0.00000	0.00000	0.00000	0.00000	1945.77979	627.38629	195.02322	1952.94812	540.25476	205.31790	1963.49976	524.83826	318.60519	2052.19824	487.50195	200.74213	2075.71558	448.38855	200.73323	0.00000	0.00000	0.00000	0.00000	0.00000	0.00000	2222.07788	223.53844	235.10609	2185.42139	211.34488	325.54831	2287.12085	228.68517	296.00507	2123.22534	90.29002	293.49301	2115.75806	100.90070	243.21002	2171.11816	105.99613	190.92294
657	5.46667	2226.41357	1002.88531	401.39917	0.00000	0.00000	0.00000	0.00000	0.00000	0.00000	2114.83252	572.30865	502.41537	2065.04565	624.60126	518.49304	0.00000	0.00000	0.00000	0.00000	0.00000	0.00000	2088.03296	505.72586	501.82703	2146.32422	404.32050	505.40454	2149.64355	359.38205	502.42761	2086.24731	396.04321	509.76254	2098.09888	349.87314	504.87006	2158.57422	99.55449	430.55081	0.00000	0.00000	0.00000	2215.30713	66.61392	372.88092	2047.71655	44.49623	461.79678	1974.37878	61.67881	393.66336	2012.70020	49.68831	346.59604	2225.67896	1012.73474	318.20480	2065.70776	997.23511	238.27954	2006.14307	649.15369	184.76477	1984.40112	611.09137	189.73203	0.00000	0.00000	0.00000	1934.45325	630.43005	195.15700	1941.18628	543.19659	204.72476	1951.52405	527.26782	318.30429	2038.33374	486.30695	199.66492	2060.33691	446.35672	199.68781	0.00000	0.00000	0.00000	0.00000	0.00000	0.00000	2197.74976	215.32445	234.29044	2160.83398	205.07785	324.46625	2263.48022	217.84229	294.59796	2093.62207	87.30074	294.18481	2086.22070	97.45100	244.04587	2141.24805	99.69405	191.25305
658	5.47500	2219.66675	1002.96930	401.02203	0.00000	0.00000	0.00000	0.00000	0.00000	0.00000	2112.31982	572.61774	502.68201	2065.54102	623.96356	519.83405	0.00000	0.00000	0.00000	0.00000	0.00000	0.00000	2086.26221	505.53339	502.28409	2145.34448	404.33881	505.56949	2148.70239	359.49548	501.85184	2085.31177	395.84216	510.11041	2097.28247	349.67847	505.18396	2158.46436	99.51256	430.46780	0.00000	0.00000	0.00000	2215.28662	66.68444	372.84024	2047.70581	44.48195	461.82465	1974.45947	61.67325	393.72910	2012.43982	49.76423	346.62802	2218.66528	1012.94904	317.95462	2058.29956	997.86530	238.85519	0.00000	0.00000	0.00000	0.00000	0.00000	0.00000	0.00000	0.00000	0.00000	1923.50684	632.99811	195.29434	1929.40002	545.78943	204.67314	1939.96851	529.41284	318.16592	2024.71033	484.80176	198.49988	2045.08057	444.10184	198.58206	0.00000	0.00000	0.00000	0.00000	0.00000	0.00000	2173.01880	206.93056	233.51654	2136.09619	198.59030	323.78677	2239.24316	206.66403	293.32782	2066.83936	82.41804	295.57724	2056.67700	94.54750	245.00085	2110.98682	93.59918	191.47697
659	5.48333	2212.90332	1002.94427	400.66785	0.00000	0.00000	0.00000	0.00000	0.00000	0.00000	2109.75586	572.91162	502.93210	2062.62646	623.81635	520.08179	2064.09985	577.13293	509.45514	0.00000	0.00000	0.00000	2084.54028	505.30939	502.63666	2144.30444	404.31876	505.78964	2147.83960	359.57605	502.00092	2084.24023	395.58044	510.43051	2096.57251	349.54788	505.46634	2158.45264	99.56984	430.42471	0.00000	0.00000	0.00000	2215.25635	66.71996	372.80093	2047.70703	44.45225	461.85406	1975.35767	61.37047	394.00912	2013.28186	50.06945	346.34695	2211.67383	1013.03809	317.67691	2051.46411	998.06805	239.17331	0.00000	0.00000	0.00000	0.00000	0.00000	0.00000	0.00000	0.00000	0.00000	1912.96741	635.23981	195.49155	1918.00452	548.12042	204.73878	1928.80774	531.17749	318.04102	2011.37073	482.98233	197.42944	2030.08240	441.48996	197.57307	0.00000	0.00000	0.00000	0.00000	0.00000	0.00000	2147.91626	198.37572	232.82222	2111.85376	192.64043	323.94162	2214.40894	195.26392	292.23245	2036.85229	79.38617	295.91208	2026.21545	91.18186	245.11317	2080.47559	87.78746	191.52411
660	5.49167	2206.10327	1002.87299	400.32318	0.00000	0.00000	0.00000	0.00000	0.00000	0.00000	2107.19580	573.20532	503.20694	2060.03149	623.61658	519.68036	2060.70947	577.16534	509.77567	0.00000	0.00000	0.00000	2082.10474	504.74146	502.35822	2142.90771	404.54459	506.47214	2146.86255	359.63135	502.17850	2083.19263	395.33868	510.80270	2095.72266	349.37555	505.79614	2158.40283	99.57590	430.34247	0.00000	0.00000	0.00000	2215.24072	66.74698	372.73816	2047.69507	44.42545	461.88657	1975.26880	61.14281	393.94406	2012.33240	49.76656	346.60126	2204.66235	1013.03986	317.38034	2044.36682	998.26373	239.51353	0.00000	0.00000	0.00000	1951.75854	631.44049	210.83949	0.00000	0.00000	0.00000	1903.03259	637.26495	195.77165	1907.11475	549.98810	204.89549	1917.98572	532.39374	317.99692	1998.30786	480.86664	196.45560	2015.32495	438.20343	196.64725	0.00000	0.00000	0.00000	0.00000	0.00000	0.00000	2122.47144	189.83296	232.18837	2086.91357	186.01059	322.32993	2188.93628	183.74493	291.39969	2005.61890	76.80405	295.93216	1996.28650	88.87157	245.27951	2049.78247	82.33925	191.39873
